# xmcd
#
# Track frame offsets:
#	150
#	12944
#	24967
#	38787
#	58178
#	74563
#	91294
#	108409
#	123019
#	145938
#	167447
#	185031
#	202153
#	220035
#
# Disc length: 3280 seconds
# Revision: 31
# Processed by: cddbd v1.5.2PL0 Copyright (c) Steve Scherf et al.
# Submitted via: dBpowerAMP V12.0
#
DISCID=c40cce0e
DTITLE=Bruno and Marrone - Acústico ao vivo
DYEAR=2001
DGENRE=Sertanejo pop
TTITLE0=Feriado nacional
TTITLE1=Dormi Na Praça
TTITLE2=Amor de Carnaval
TTITLE3=Meu jeito de sentir
TTITLE4=Seu amor ainda é tudo
TTITLE5=Um bom perdedor
TTITLE6=Vida Vazia
TTITLE7=Programa de Fim de Semana
TTITLE8=Tenho Ciúme de Tudo
TTITLE9=Por um minuto
TTITLE10=A solidão é uma ressaca
TTITLE11=Nova Flor (Os Homens Não Devem Chorar)
TTITLE12=Só Pro Meu Prazer
TTITLE13=Boate Azul
EXTD=
EXTT0=
EXTT1=
EXTT2=
EXTT3=
EXTT4=
EXTT5=
EXTT6=
EXTT7=
EXTT8=
EXTT9=
EXTT10=
EXTT11=
EXTT12=
EXTT13=
PLAYORDER=
